<svg width="470" height="93" viewBox="0 0 470 93" fill="none" xmlns="http://www.w3.org/2000/svg">
<path d="M0 1.70519L16.9927 1.87979V19.5603C19.3687 13.2982 22.7696 8.46195 27.1488 5.08067C31.5455 1.69938 36.9962 0 43.5243 0C50.0523 0 55.2876 1.75757 59.6202 5.2669C63.9528 8.78786 66.8645 13.9907 68.367 20.8814C70.7546 14.2352 74.3709 9.09631 79.1985 5.46477C84.0261 1.82159 89.9486 0 96.9833 0C105.515 0 112.241 2.89243 117.126 8.64819C122.03 14.4214 124.464 22.5807 124.464 33.1087V90.6663H111.291V33.679C111.291 26.2705 109.731 20.7591 106.592 17.116C103.453 13.4902 98.87 11.6687 92.8545 11.6687C85.9479 11.6687 80.5554 14.5145 76.6653 20.2237C72.7753 25.9329 70.8303 33.679 70.8303 43.4621V90.6721H57.6577V35.7509C57.6577 27.4693 56.097 21.3935 52.9582 17.5059C49.8194 13.6183 45.3004 11.6745 39.4013 11.6745C32.4947 11.6745 27.0731 14.4621 23.119 20.0491C19.1649 25.6186 17.1907 33.3648 17.1907 43.27V90.6779H4.01816V7.54243L0.0116471 1.70519H0Z" fill="black"/>
<path d="M147.233 7.98596C154.21 2.91112 163.161 0.181641 174.33 0.181641C185.499 0.181641 194.194 2.75398 200.034 7.89866C205.875 13.0433 208.781 20.8186 208.781 31.2243V79.9475L208.886 85.936L213.789 91.005L195.993 90.6617V75.0472C192.714 81.1987 188.335 85.6683 182.803 88.5025C177.288 91.3193 171.208 92.7277 164.547 92.7277C155.264 92.7277 147.926 90.4173 142.534 85.7789C137.13 81.1405 134.434 75.0472 134.434 67.5339C134.434 61.3824 135.872 56.4996 138.766 52.8564C141.643 49.2307 145.417 46.4605 150.052 44.5749C154.693 42.7067 160.715 41.0074 168.128 39.5059C170.638 38.9995 172.705 38.4932 174.33 37.9927C181.236 36.6134 186.32 35.3273 189.587 34.1342C192.848 32.9528 195.038 31.2243 196.174 28.9779V27.843C196.174 22.4539 194.415 18.2462 190.903 15.2432C187.38 12.2286 181.865 10.7271 174.33 10.7271C166.794 10.7271 160.884 12.2868 156.545 15.4236M185.913 76.2752C191.119 72.2014 194.537 66.079 196.174 57.9371V39.8725C194.287 41.7581 191.684 43.2422 188.364 44.2955C185.039 45.3664 180.491 46.5303 174.714 47.7699C173.334 48.0318 171.756 48.3345 170.015 48.7186C162.864 50.4761 157.407 52.6353 153.639 55.2076C149.871 57.78 147.985 61.6967 147.985 66.9636C147.985 71.6019 149.592 75.3382 152.777 78.155C155.98 80.9718 160.464 82.3801 166.241 82.3801C174.144 82.3801 180.701 80.3432 185.907 76.2752H185.913Z" fill="black"/>
<path d="M217.086 1.60626L237.381 1.87979V22.7611C239.768 15.4922 243.478 9.87034 248.486 5.92453C253.511 1.9729 259.789 0 267.313 0C276.98 0 284.527 3.07866 289.995 9.2127C295.446 15.3642 298.177 24.0124 298.177 35.1747V90.6663H285.005V35.9255C285.005 28.028 283.182 22.0104 279.554 17.8783C275.908 13.7288 270.824 11.6628 264.314 11.6628C255.521 11.6628 248.876 15.1372 244.357 22.1035C239.838 29.0698 237.584 39.1264 237.584 52.2907V90.6663H224.394V11.4591L217.092 1.60044L217.086 1.60626Z" fill="black"/>
<path d="M328.389 86.5296C321.803 82.642 316.69 77.2529 313.044 70.3507C309.399 63.4484 307.594 55.4288 307.594 46.2743C307.594 37.1197 309.446 29.2514 313.138 22.2851C316.847 15.3363 322.024 9.90067 328.669 6.01306C335.319 2.14291 342.977 0.181641 351.63 0.181641C360.284 0.181641 367.761 2.14291 374.406 6.01306C381.056 9.90067 386.233 15.3363 389.937 22.2851C393.629 29.2514 395.481 37.242 395.481 46.2743C395.481 55.3065 393.594 63.1458 389.844 70.1702C386.076 77.1831 380.87 82.6478 374.22 86.5355C367.558 90.4231 359.911 92.3669 351.258 92.3669C342.604 92.3669 334.975 90.4231 328.389 86.5355V86.5296ZM373.742 71.8522C379.193 65.7123 381.936 57.3726 381.936 46.8388V46.088C381.936 35.432 379.222 26.9701 373.835 20.6905C368.443 14.4168 361.047 11.2741 351.625 11.2741C342.202 11.2741 334.713 14.411 329.14 20.6905C323.55 26.9642 320.761 35.432 320.761 46.088V46.8388C320.761 57.3726 323.486 65.7123 328.954 71.8522C334.405 78.0037 341.835 81.0649 351.258 81.0649C360.68 81.0649 368.291 78.0037 373.742 71.8522Z" fill="black"/>
<path d="M455.888 20.1015C452.539 16.0451 450.833 16.0218 446.39 13.8161C441.935 11.6279 437.183 10.528 432.175 10.528C426.52 10.528 422.007 11.8432 418.618 14.4796C415.234 17.1101 413.534 20.6311 413.534 25.0134C413.534 28.2899 414.547 30.8157 416.551 32.6373C418.56 34.4589 421.757 35.9895 426.153 37.2466C428.908 37.8751 432.74 38.7597 437.625 39.8771C443.903 41.2564 449.36 42.8917 454.001 44.7773C458.642 46.663 462.474 49.3226 465.491 52.7679C468.507 56.2132 470.01 60.5722 470.01 65.8391C470.01 71.106 468.629 75.7735 465.857 79.8473C463.103 83.9328 459.242 87.1337 454.292 89.4441C449.331 91.772 443.583 92.9185 437.061 92.9185C429.036 92.9185 421.634 91.3879 414.85 88.3093C408.077 85.2481 402.627 80.8832 398.475 75.2381L409.394 69.04C412.777 73.4339 416.958 76.7221 421.908 78.9103C426.87 81.0986 432.111 82.1985 437.625 82.1985C443.647 82.1985 448.457 80.8192 452.021 78.0665C455.602 75.3137 457.396 71.6065 457.396 66.9682C457.396 63.2028 455.882 60.322 452.877 58.3025C449.861 56.3121 445.155 54.4906 438.755 52.8552L431.22 50.9696C424.569 49.4681 419.119 47.8444 414.844 46.0868C410.587 44.3292 407.204 41.8151 404.688 38.556C402.178 35.2969 400.92 31.0427 400.92 25.7758C400.92 20.8755 402.301 16.4816 405.055 12.594C407.827 8.72384 411.577 5.64518 416.358 3.38129C421.122 1.12903 426.45 0 432.349 0C439.745 0 446.5 1.48404 452.586 4.42303C456.808 6.47159 459.009 7.70538 462.486 10.9237" fill="black"/>
</svg>
